<svg width="24" height="24" viewBox="0 0 24 24" fill="none" xmlns="http://www.w3.org/2000/svg">
<circle cx="12" cy="12" r="12" fill="white"/>
<path fill-rule="evenodd" clip-rule="evenodd" d="M14.2144 14.6773V22.9234C14.2144 22.9234 14.2144 22.9235 14.2144 22.9235V23.7923C13.5006 23.9259 12.7658 23.9991 12.0134 24C12.0088 24 12.0042 24 11.9996 24C11.8001 24 11.6008 23.9945 11.4013 23.9849C10.811 23.9553 10.2318 23.8827 9.66683 23.7713V16.824L4.85229 21.6386C4.40642 21.3074 3.98522 20.9455 3.58961 20.5569L9.63101 14.5155H0.266002C0.0932275 13.7039 0 12.8633 0 12.0002C0 11.3071 0.0621686 10.6292 0.1747 9.9683H7.35803L6.32994 8.94057L2.31138 4.92201C2.63996 4.4735 2.99899 4.04911 3.38497 3.65082L9.66698 9.93268V0.228357C10.232 0.11694 10.8108 0.0443337 11.4011 0.0147948C11.6009 0.00511738 11.8003 0 11.9998 0C12.7572 0 13.4965 0.0733154 14.2144 0.207279V1.07652C14.2144 1.07654 14.2144 1.07656 14.2145 1.07657V7.65854L16.278 5.59461C16.278 5.59468 16.2781 5.59475 16.2781 5.59482L19.3526 2.51983C19.7906 2.85996 20.2048 3.22922 20.5912 3.62599L16.3 7.9172C16.3 7.91715 16.3 7.91711 16.2999 7.91706L14.2489 9.9681H16.6143H16.9053H23.8253C23.9382 10.6292 24 11.3071 24 12.0002C24 12.8631 23.9072 13.7039 23.734 14.5155H16.8708H16.5798H16.3971L16.6005 14.7188L16.8331 14.9515L17.425 15.5432L21.372 19.4905C21.0256 19.9231 20.6499 20.3304 20.248 20.7113L16.1859 16.6492C16.1859 16.6491 16.1859 16.649 16.1859 16.649L14.2144 14.6773Z" fill="#E51D35"/>
<path fill-rule="evenodd" clip-rule="evenodd" d="M16.1661 5.22976L15.8999 5.49591L15.8999 5.49582L15.2419 6.15352V3.21016L15.2419 3.21006V0.446777C16.6419 0.838992 17.9387 1.47694 19.0818 2.31406L16.1819 5.21395L16.1661 5.22976ZM8.63929 0.480318C7.25669 0.88297 5.97623 1.52548 4.84869 2.36351L8.63929 6.15412V0.480318ZM0.394897 8.94035C0.751493 7.58486 1.33959 6.3237 2.11342 5.20052L5.85347 8.94035H0.394897ZM8.6393 23.5193C7.36983 23.1496 6.18823 22.5767 5.1306 21.8366L8.6393 18.3285V23.5193ZM0.53261 15.5432C0.929384 16.8284 1.53739 18.0208 2.31442 19.0814L5.85266 15.5432H0.53261ZM23.6052 8.94056C23.241 7.55644 22.6352 6.27162 21.837 5.1308L18.0268 8.94056H23.6052ZM15.2419 23.5529V21.3819V20.8629V18.3289L15.8846 18.9715L15.8846 18.9714L18.7993 21.8861C17.7269 22.6254 16.5279 23.1929 15.2419 23.5529ZM23.4678 15.5432C23.0621 16.8566 22.4376 18.0734 21.6363 19.1514L18.0282 15.5432H23.4678Z" fill="#29337A"/>
<circle cx="12" cy="12" r="11.5" stroke="white"/>
</svg>
